<svg width="24" height="24" viewBox="0 0 24 24" fill="none" xmlns="http://www.w3.org/2000/svg">
<path d="M6.94454 3.17679C6.928 3.16024 6.91107 3.14423 6.89378 3.12875L6.89353 3.12854C6.67271 2.93086 6.37987 2.81006 6.06 2.81006C5.36964 2.81006 4.81 3.3697 4.81 4.06006V5.05997C4.60108 4.90304 4.3414 4.81006 4.06 4.81006C3.36964 4.81006 2.81 5.3697 2.81 6.06006V6.81006C2.81 7.91463 3.70543 8.81006 4.81 8.81006H5.06C5.88644 8.81006 6.60882 8.36448 7 7.70045V12.5H4.25C2.73122 12.5 1.5 13.7312 1.5 15.25V17.25C1.5 18.5537 2.40694 19.6452 3.62462 19.9285C4.03161 21.4109 5.3882 22.5 7 22.5C8.58578 22.5 9.92452 21.4458 10.3549 20H11.6451C12.0755 21.4458 13.4142 22.5 15 22.5C16.5858 22.5 17.9245 21.4458 18.3549 20H19.75C21.2687 20 22.5 18.7687 22.5 17.25V11.8373C22.5 11.4301 22.4095 11.028 22.2353 10.6601L22.2353 10.6601L20.5361 7.07277L20.5361 7.07273C20.081 6.11236 19.1136 5.5 18.0508 5.5H17.75V5.25C17.75 4.55964 17.1904 4 16.5 4C15.8096 4 15.25 4.55964 15.25 5.25V5.5H15C14.7239 5.5 14.5 5.72386 14.5 6V10.7322L6.94454 3.17679Z" fill="white" stroke="white" stroke-linejoin="round"/>
<path fill-rule="evenodd" clip-rule="evenodd" d="M5.31 4.06006C5.31 3.64585 5.64578 3.31006 6.06 3.31006C6.25218 3.31006 6.42748 3.38234 6.56019 3.50121C6.57066 3.51057 6.58093 3.52028 6.59099 3.53034L15 11.9393V6H15.75V5.25C15.75 4.83579 16.0858 4.5 16.5 4.5C16.9142 4.5 17.25 4.83579 17.25 5.25V6H18.0508C18.9203 6 19.7119 6.501 20.0842 7.28681L21.7834 10.8741C21.926 11.1752 22 11.5042 22 11.8373V17.25C22 18.4926 20.9926 19.5 19.75 19.5H17.9585C17.7205 20.9189 16.4865 22 15 22C13.5135 22 12.2795 20.9189 12.0415 19.5H9.95852C9.72048 20.9189 8.4865 22 7 22C5.51012 22 4.27391 20.9139 4.03987 19.4903C2.89576 19.3844 2 18.4218 2 17.25V15.25C2 14.0074 3.00736 13 4.25 13H7.5V6.56067L6.81 5.87067V6.56006C6.81 7.52656 6.0265 8.31006 5.06 8.31006H4.81C3.98157 8.31006 3.31 7.63849 3.31 6.81006V6.06006C3.31 5.64584 3.64578 5.31006 4.06 5.31006C4.47421 5.31006 4.81 5.64584 4.81 6.06006V6.56006C4.81 6.69813 4.92193 6.81006 5.06 6.81006C5.19807 6.81006 5.31 6.69813 5.31 6.56006V4.06006ZM9 8.06067V13H13.9393L9 8.06067ZM7 20.5C6.17157 20.5 5.5 19.8284 5.5 19C5.5 18.1716 6.17157 17.5 7 17.5C7.82843 17.5 8.5 18.1716 8.5 19C8.5 19.8284 7.82843 20.5 7 20.5ZM16.5 19C16.5 19.8284 15.8284 20.5 15 20.5C14.1716 20.5 13.5 19.8284 13.5 19C13.5 18.1716 14.1716 17.5 15 17.5C15.8284 17.5 16.5 18.1716 16.5 19ZM18.0508 7.5H16.5V11H20.1833L18.7286 7.92894C18.6045 7.667 18.3406 7.5 18.0508 7.5ZM20.5 15.5V17H19.25C18.8358 17 18.5 16.6642 18.5 16.25C18.5 15.8357 18.8358 15.5 19.25 15.5H20.5Z" fill="#1D5AB9"/>
</svg>
