<svg width="24" height="24" viewBox="0 0 24 24" fill="none" xmlns="http://www.w3.org/2000/svg">
<path d="M14 9.52514L7.2981 2.82323C7.27506 2.8002 7.25147 2.77788 7.22736 2.7563L14 9.52514ZM14 9.52514V6C14 5.52903 14.3256 5.13411 14.7639 5.02802C14.873 4.16633 15.6087 3.5 16.5 3.5C17.3834 3.5 18.1139 4.15454 18.233 5.00509C19.4165 5.07129 20.4763 5.77885 20.9879 6.85865L20.9879 6.85873L22.6871 10.446L22.6872 10.4461C22.8931 10.8809 23 11.3561 23 11.8373V17.25C23 19.0449 21.5449 20.5 19.75 20.5H18.7089C18.1155 21.9661 16.6792 23 15 23C13.3208 23 11.8845 21.9661 11.2911 20.5H10.7089C10.1155 21.966 8.67919 23 7 23C5.25892 23 3.77898 21.8884 3.2289 20.3361C1.9339 19.9079 1 18.6884 1 17.25V15.25C1 13.4551 2.45508 12 4.25 12H6.5V8.90335C6.08118 9.16128 5.58796 9.31006 5.06 9.31006H4.81C3.42929 9.31006 2.31 8.19077 2.31 6.81006V6.06006C2.31 5.09356 3.0935 4.31006 4.06 4.31006C4.14488 4.31006 4.22835 4.3161 4.31 4.32778M14 9.52514L4.31 4.32778M4.31 4.32778V4.06006C4.31 3.09356 5.0935 2.31006 6.06 2.31006C6.50755 2.31006 6.91794 2.47937 7.22688 2.75587L4.31 4.32778Z" fill="white" stroke="white" stroke-width="2" stroke-linejoin="round"/>
<path fill-rule="evenodd" clip-rule="evenodd" d="M5.31 4.06006C5.31 3.64585 5.64578 3.31006 6.06 3.31006C6.25218 3.31006 6.42748 3.38234 6.56019 3.50121C6.57066 3.51057 6.58093 3.52028 6.59099 3.53034L15 11.9393V6H15.75V5.25C15.75 4.83579 16.0858 4.5 16.5 4.5C16.9142 4.5 17.25 4.83579 17.25 5.25V6H18.0508C18.9203 6 19.7119 6.501 20.0842 7.28681L21.7834 10.8741C21.926 11.1752 22 11.5042 22 11.8373V17.25C22 18.4926 20.9926 19.5 19.75 19.5H17.9585C17.7205 20.9189 16.4865 22 15 22C13.5135 22 12.2795 20.9189 12.0415 19.5H9.95852C9.72048 20.9189 8.4865 22 7 22C5.51012 22 4.27391 20.9139 4.03987 19.4903C2.89576 19.3844 2 18.4218 2 17.25V15.25C2 14.0074 3.00736 13 4.25 13H7.5V6.56067L6.81 5.87067V6.56006C6.81 7.52656 6.0265 8.31006 5.06 8.31006H4.81C3.98157 8.31006 3.31 7.63849 3.31 6.81006V6.06006C3.31 5.64584 3.64578 5.31006 4.06 5.31006C4.47421 5.31006 4.81 5.64584 4.81 6.06006V6.56006C4.81 6.69813 4.92193 6.81006 5.06 6.81006C5.19807 6.81006 5.31 6.69813 5.31 6.56006V4.06006ZM9 8.06067V13H13.9393L9 8.06067ZM7 20.5C6.17157 20.5 5.5 19.8284 5.5 19C5.5 18.1716 6.17157 17.5 7 17.5C7.82843 17.5 8.5 18.1716 8.5 19C8.5 19.8284 7.82843 20.5 7 20.5ZM16.5 19C16.5 19.8284 15.8284 20.5 15 20.5C14.1716 20.5 13.5 19.8284 13.5 19C13.5 18.1716 14.1716 17.5 15 17.5C15.8284 17.5 16.5 18.1716 16.5 19ZM18.0508 7.5H16.5V11H20.1833L18.7286 7.92894C18.6045 7.667 18.3406 7.5 18.0508 7.5ZM20.5 15.5V17H19.25C18.8358 17 18.5 16.6642 18.5 16.25C18.5 15.8357 18.8358 15.5 19.25 15.5H20.5Z" fill="#1D5AB9"/>
</svg>
